<svg width="64" height="64" viewBox="0 0 64 64" fill="none" xmlns="http://www.w3.org/2000/svg">
<path fill-rule="evenodd" clip-rule="evenodd" d="M32.0002 0.581787C49.3404 0.581787 63.4184 14.6598 63.4184 32C63.4184 49.3401 49.3404 63.4182 32.0002 63.4182C14.6601 63.4182 0.582031 49.3401 0.582031 32C0.582031 14.6598 14.6601 0.581787 32.0002 0.581787ZM32.0002 12.3636C26.6673 12.3636 25.9986 12.3862 23.9041 12.4818C21.8141 12.5772 20.3867 12.9091 19.1375 13.3945C17.8463 13.8963 16.7512 14.5678 15.6596 15.6594C14.5679 16.7511 13.8965 17.8462 13.3946 19.1374C12.9093 20.3864 12.5774 21.8139 12.4819 23.9039C12.3864 25.9984 12.3638 26.6671 12.3638 32C12.3638 37.3328 12.3864 38.0016 12.4819 40.096C12.5774 42.1861 12.9093 43.6135 13.3946 44.8625C13.8965 46.1537 14.5679 47.2488 15.6596 48.3406C16.7512 49.4323 17.8463 50.1037 19.1375 50.6056C20.3867 51.0908 21.8141 51.4228 23.9041 51.5182C25.9986 51.6138 26.6673 51.6363 32.0002 51.6363C37.3331 51.6363 38.0018 51.6138 40.0963 51.5182C42.1863 51.4228 43.6138 51.0908 44.8628 50.6056C46.154 50.1037 47.2491 49.4323 48.3409 48.3406C49.4325 47.2488 50.104 46.1537 50.6058 44.8625C51.0911 43.6135 51.423 42.1861 51.5184 40.096C51.614 38.0016 51.6366 37.3328 51.6366 32C51.6366 26.6671 51.614 25.9984 51.5184 23.9039C51.423 21.8139 51.0911 20.3864 50.6058 19.1374C50.104 17.8462 49.4325 16.7511 48.3409 15.6594C47.2491 14.5678 46.154 13.8963 44.8628 13.3945C43.6138 12.9091 42.1863 12.5772 40.0963 12.4818C38.0018 12.3862 37.3331 12.3636 32.0002 12.3636ZM32.0002 15.9017C37.2434 15.9017 37.8644 15.9217 39.935 16.0162C41.8496 16.1036 42.8892 16.4234 43.5811 16.6923C44.4978 17.0485 45.1519 17.4741 45.8389 18.1612C46.5262 18.8483 46.9517 19.5025 47.3079 20.4191C47.5768 21.111 47.8967 22.1506 47.984 24.0652C48.0785 26.1358 48.0985 26.7568 48.0985 32C48.0985 37.2431 48.0785 37.8641 47.984 39.9348C47.8967 41.8493 47.5768 42.8889 47.3079 43.5809C46.9517 44.4975 46.5262 45.1517 45.8389 45.8387C45.1519 46.526 44.4978 46.9515 43.5811 47.3076C42.8892 47.5765 41.8496 47.8965 39.935 47.9837C37.8647 48.0782 37.2437 48.0982 32.0002 48.0982C26.7567 48.0982 26.1358 48.0782 24.0654 47.9837C22.1509 47.8965 21.1112 47.5765 20.4193 47.3076C19.5026 46.9515 18.8485 46.526 18.1614 45.8387C17.4742 45.1517 17.0487 44.4975 16.6926 43.5809C16.4237 42.8889 16.1037 41.8493 16.0163 39.9348C15.9218 37.8641 15.902 37.2431 15.902 32C15.902 26.7568 15.9218 26.1358 16.0163 24.0652C16.1037 22.1506 16.4237 21.111 16.6926 20.4191C17.0487 19.5025 17.4742 18.8483 18.1614 18.1612C18.8485 17.4741 19.5026 17.0485 20.4193 16.6923C21.1112 16.4234 22.1509 16.1036 24.0654 16.0162C26.1361 15.9217 26.7571 15.9017 32.0002 15.9017ZM32.0002 21.9165C26.4312 21.9165 21.9167 26.431 21.9167 32C21.9167 37.569 26.4312 42.0835 32.0002 42.0835C37.5692 42.0835 42.0837 37.569 42.0837 32C42.0837 26.431 37.5692 21.9165 32.0002 21.9165ZM32.0002 38.5454C28.3853 38.5454 25.4548 35.6149 25.4548 32C25.4548 28.385 28.3853 25.4546 32.0002 25.4546C35.6151 25.4546 38.5456 28.385 38.5456 32C38.5456 35.6149 35.6151 38.5454 32.0002 38.5454ZM44.8386 21.5181C44.8386 22.8195 43.7835 23.8743 42.4821 23.8743C41.1808 23.8743 40.1259 22.8195 40.1259 21.5181C40.1259 20.2167 41.1808 19.1617 42.4821 19.1617C43.7835 19.1617 44.8386 20.2167 44.8386 21.5181Z" fill="white"/>
</svg>
